<svg xmlns="http://www.w3.org/2000/svg" width="184" height="150"><path d="M181.6075 42.9164c-3.5-11.1-14.6-18.1-25.6-22.1-3.7999-1.4-7.9-2.6-11-5.1999s-5-6.4001-8.2999-8.8001c-4-2.9-9.8001-3.1999-14-.6-1.1001.7-2.1001 1.5-3.3001 2-3 1.2-6.4 0-9.1999-1.8-2.7001-1.7999-5.1001-4.1-8.1001-5.2999-3.3999-1.4001-7.1-1.2001-10.7-.9001-3.5999-.3-7.4-.5-10.6999.9001-3 1.1999-5.4 3.5-8.1001 5.2999s-6.2 3-9.2 1.8c-1.1999-.5-2.1999-1.3-3.3-2-4.2-2.5999-10-2.4-14 .6-3.2999 2.4-5.2 6.2-8.2999 8.8001s-7.2001 3.7999-11 5.1999c-11 4-22.1001 10.9-25.6001 22.1-1.3 4.2001-1.3999 8.6-1 12.9.9 9.7 4.5 19.2 10.3 27.1 2.5 3.4 5.4 6.6 8.1 9.9 9.8 11.9 17.3 25.7 27.8 36.9 8.6 9.2 20 16.7 32.2 18 4 .7 8.3 1 12.8 1s8.8001-.3999 12.8001-1c12.1999-1.3 23.6999-8.8 32.1999-18 10.5-11.3 18-25.0999 27.8001-36.9 2.6999-3.3 5.6-6.4 8.1-9.9 5.7999-7.9 9.2999-17.4 10.2999-27.1.4-4.3.3-8.8-1-12.9z" fill="#766a5e"/><path d="M111.4075 77.1164c-4.9.6-9.7 1.7-14.6 1.9-7.3.2-14.5-1.7-21.8-2.4-11.3-1.1-22.5.8-33.4 3.3 1.5 2.3 3 4.7 4.2 7.3 2.2 4.7 3.4 9.8 5.1 14.7 1.4 4.1 3.2 8.2 5.2 12 1.5 2.7 3.1 5.4 5.4 7.4 5.8 5.2 12.3 7.1 20.4 7.7 2.6999.2 6.1999.4 9.5.4 3.3.1 6.6999-.1 9.5-.4 8.1-.7 14.6999-2.5 20.4-7.7 2.2999-2.1 3.9-4.7 5.4-7.4 2.1-3.9 3.8-7.9 5.2-12 1.6999-4.9 2.9-10 5.1-14.7 1.3-2.8 2.9-5.4 4.5999-8-9.6999-2.6-20.0999-3.4-30.1999-2.1z" fill="#ceac90"/><path d="M153.1074 64.0164c6.6001-6.5 15.2001-10.6 23.6001-14.5-1.7-6.4-8.4-10.5-15.1001-11.3s-13.2999.9-19.7999 2.5-13.3 3-19.9 1.5c-5.4-1.2-10.2-4.3-15.1-6.7-4.8-2.3-10.2001-4.1-15.4-2.8-5.1-1.2-10.6.5-15.4 2.8-5 2.4-9.7 5.5-15.1 6.7-6.5 1.5-13.4 0-19.9-1.5-6.5-1.6-13.2-3.3-19.8-2.5-6.7.8-13.4 4.9-15.1 11.3 8.4 4 17 8 23.6 14.5 3.8 3.7 6.8 8.2 9.8 12.6.7 1.1 1.5 2.2 2.2 3.3 11-2.4 22.1-4.3 33.3999-3.3 7.3001.7 14.5 2.6 21.8001 2.4 4.9-.1 9.6999-1.2 14.6-1.9 10-1.3 20.4-.5 30.2 2 .6-.9 1.2-1.7 1.7-2.6 2.9-4.4 5.9-8.8 9.6999-12.5z" fill="#3c2914"/><path d="M59.3076 12.6164c.0999-.1.0999-.2.0999-.3s-.0999-.3-.1999-.4c-1.0001-1.2-1.8001-2.6-3.0001-3.6-2.3-1.8-5.8-1.3-8.1.4-1.9 1.4-3.1 3.6-4 5.8-.2.6.3 1.3 1 1.2.5-.1.9 0 1.3.1.5.1.9001.4 1.4001.7 1.0999.7 2.3999 1.2 3.6999 1.5 1.3001.2 2.7.1 3.8001-.5 1.1999-.7 2.0999-1.9 2.8999-3.1.3-.7.7-1.2 1.1001-1.8z" fill="#050508"/><path d="M56.3075 9.0164c.8.5 1.6 1.2 1.7 2.1.1.8-.3 1.6-.8 2.3-.6.9-1.3 1.7-2 2.4-.4.4-.8.7-1.3.9s-1.1.2-1.7.1c-2.2-.2-4.2-1.1-5.8-2.6-.2-.2-.4-.4-.4-.7 0-.2.1-.4.1-.6.7-1.6 1.6-3.1 3-4.1s3.2-1.6 4.9-1.1c.8.4 1.6.8 2.3 1.3z" fill="#341511"/><path d="M49.1075 8.9164c1.3999-1 3.2-1.6 4.8999-1.1.8001.2 1.6001.7 2.3001 1.2.1999.1.4.2.5.4.6 1 .9 2.3.6999 3.6-.0999.1-.1999.3-.1999.4-.6.9-1.3001 1.7-2 2.4-.4.4-.8001.7-1.3001.9s-1.0999.2-1.6999.1c-1.6-.2-3.2-.7-4.6-1.6-.7001-1-1.1-2.2-.9-3.5.5-1 1.3-2 2.3-2.8z" fill="#85361b"/><path d="M50.2075 12.6164c0-1.2188.9812-2.2 2.2-2.2s2.2.9812 2.2 2.2-.9812 2.2-2.2 2.2-2.2-.9812-2.2-2.2z" fill="#010101"/><path d="M123.5075 12.6164c-.1-.1-.1-.2-.1-.3s.1-.3.2-.4c1-1.2 1.8-2.6 3-3.6 2.3-1.8 5.8-1.3 8.1.4 1.9 1.4 3.1 3.6 4 5.8.2.6-.3 1.3-1 1.2-.5-.1-.9 0-1.3.1-.5.1-.9.4-1.4.7-1.1.7-2.4 1.2-3.7 1.5-1.3.2-2.7.1-3.8-.5-1.2-.7-2.1-1.9-2.9-3.1-.3-.7-.7-1.2-1.1-1.8z" fill="#050508"/><path d="M126.5075 9.0164c-.8.5-1.6 1.2-1.7 2.1-.1.8.2999 1.6.7999 2.3.6001.9 1.3001 1.7 2 2.4.4001.4.8001.7 1.3001.9s1.1.2 1.6999.1c2.2001-.2 4.2001-1.1 5.8001-2.6.1999-.2.4-.4.4-.7 0-.2-.1-.4-.1-.6-.7-1.6-1.6001-3.1-3-4.1s-3.2-1.6-4.9-1.1c-.8.4-1.6.8-2.3 1.3z" fill="#341511"/><path d="M133.7076 8.9164c-1.4001-1-3.2001-1.6-4.9001-1.1-.8.2-1.5999.7-2.3 1.2-.2.1-.4.2-.5.4-.6 1-.9 2.3-.7 3.6.1.1.2.3.2.4.6.9 1.3 1.7 2 2.4.4.4.8.7 1.3.9s1.1.2 1.7.1c1.6-.2 3.2001-.7 4.6-1.6.7-1 1.1001-2.2.9-3.5-.5-1-1.2999-2-2.2999-2.8z" fill="#85361b"/><path d="M128.2076 12.6164c0-1.2188.9812-2.2 2.2-2.2s2.1999.9812 2.1999 2.2-.9812 2.2-2.1999 2.2-2.2-.9812-2.2-2.2z" fill="#010101"/><path d="M87.3076 32.2164l.7999 8.4.4001 2.8c.3 1.1.7 2.2 1.4 3.1.1999.4.5.7.9.8.7.2 1.2-.5 1.6-1.2 1.3-2.3 1.6999-5.2 2-8l.6999-6c-1.1999 0-2.5.1-3.6999.4-1.4-.2-2.7-.3-4.1-.3zm-53.0001 6.8c.1 3.1.5 6.2.8 9.2l.4 2.8c.3 1.1.7 2.2 1.4 3.1.2.4.5.7.9.8.7.2 1.2-.5 1.6-1.2 1.3-2.3 1.7-5.2 2-8l.6-5c-.3-.1-.6-.1-.9-.2l-6.8-1.5zm-11-1.1l.5 4.3.4 2.8c.3 1.1.7 2.2 1.4 3.1.2.4.5.7.9.8.7.2 1.2-.5 1.6-1.2 1.3-2.3 1.7-5.2 2-8 .1-.5.1-1 .2-1.5l-7-.3zm25.5 12l.4 2.8c.3 1.1.7 2.2 1.4 3.1.2.4.5.7.9.8.7.2 1.2-.5 1.6-1.2 1.3-2.3 1.7-5.2 2-8l.5-4.8c-2.5.1-5.1-.2-7.6-.6l.8 7.9zm20.4001-8.7l.2999-2.4c-2.1999 1.1-4.5 2.1-6.7999 2.8l.2 2 .4 2.8c.2999 1.1.6999 2.2 1.4 3.1.2.4.5.7.8999.8.7001.2 1.2001-.5 1.6001-1.2 1.3999-2.2 1.7-5.2 2-7.9zm12.9999-8.2c-2.1001.6-4.2 1.4-6.2 2.4l-1.2.6.5 4.6.4 2.8c.3 1.1.7 2.2 1.3999 3.1.2001.4.5.7.9001.8.7.2 1.2-.5 1.5999-1.2 1.3001-2.3 1.7001-5.2 2-8l.6001-5.1zm58.6 7.8l.6 5c.3 2.8.6999 5.7 2 8 .4.7 1 1.3 1.6 1.2.4-.1.7-.5.9-.8.6-.9 1.1-2 1.4-3.1.2-.9.2999-1.9.4-2.8l.8-9.2-6.8 1.6c-.2-.1-.6001 0-.9.1zm11.7-2.5c.1.5.1 1 .2001 1.5.2999 2.8.6999 5.7 2 8 .3999.7 1 1.3 1.5999 1.2.4001-.1.7-.5.9001-.8.5999-.9 1.0999-2 1.3999-3.1.2-.9.3-1.9.4-2.8l.5-4.3c-2.4-.2-4.7 0-7 .3zm-24.9 9.2c.3 2.8.7 5.7 2 8 .4.7 1 1.3 1.6001 1.2.3999-.1.6999-.5.8999-.8.6001-.9 1.1001-2 1.4-3.1.2001-.9.3-1.9.4-2.8l.7-7.8c-2.5.4-5.1.7-7.6.6.3 1.5.4 3.1.6 4.7zm-14-6.3c.3001 2.8.7001 5.7 2 8 .4001.7 1 1.3 1.6001 1.2.3999-.1.7-.5.8999-.8.6001-.9 1.1001-2 1.4001-3.1.2-.9.3-1.9.4-2.8l.1999-2c-2.3999-.7-4.5999-1.7-6.7999-2.8l.2999 2.3zm-13-8.2l.6001 5.1c.2999 2.8.6999 5.7 2 8 .3999.7 1 1.3 1.6 1.2.4-.1.6999-.5.9-.8.6-.9 1.1-2 1.3999-3.1.2001-.9.3-1.9.4-2.8l.5-4.6-1.1999-.6c-2-.9-4.1-1.8-6.2001-2.4zm-27.4 81.8001c-.3-1.1-.7001-2.2-1.4-3.1-.2001-.4-.5-.7-.9-.8-.7-.2-1.2.5-1.6 1.2-1.3001 2.3-1.7001 5.2-2 8l-.6 5c2.3999 1.3 5 2.2 7.7 2.9-.1-3.4-.5-6.9-.8001-10.3 0-1.1-.1-2-.3999-2.9zm42.2 0c-.3-1.1-.6999-2.2-1.4-3.1-.1999-.4-.5-.7-.9-.8-.7-.2-1.2.5-1.6 1.2-1.2999 2.3-1.6999 5.2-2 8l-.9 7.8c2.8-.7 5.4-1.7 7.9-3.1l-.6999-7.1-.4001-2.9zm-28.4 4c-.2999-1.1-.7-2.2-1.2999-3.1-.2001-.4-.5-.7-.8001-.8-.6-.2-1.1999.5-1.5 1.2-1.1999 2.3-1.6 5.2-1.9 8l-.5 4.9c.3 0 .6.1.9.1l6.2.3c-.1-2.6-.3999-5.2-.7-7.7l-.4-2.9zm14.2001 0c-.3001-1.1-.7001-2.2-1.3001-3.1-.1999-.4-.5-.7-.8-.8-.6-.2-1.2.5-1.5 1.2-1.2 2.3-1.6 5.2-1.8999 8l-.6001 5.3 5.7001-.3c.5 0 .9-.1 1.4-.1l-.7001-7.3c0-1.1-.1-2-.2999-2.9z" fill="#fff"/><path d="M27.4075 26.2164s.1 0 .4-.1.6-.2 1.2-.3c1.1-.2 2.6-.4 4.6-.3s4.4.6 6.9 1.9c1.3.6 2.5 1.5 3.7 2.4s2.5 1.9 3.9 2.5c.4.1.7.3 1.1.3.4.1.8.1 1.2.2.8 0 1.6-.1 2.4-.3 1.6-.5 3.2-1.5 4.5-2.7 2.8-2.4 4.6-6.1 7.2-9.5 1.3-1.7 2.8-3.3 4.8-4.6.5-.3.9001-.5 1.4001-.8.5-.2 1.0999-.5 1.5999-.6s1.1-.3 1.7-.4l1.7001-.3c4.5-.5 9 .3 13.3999.7 2.2.2 4.4.3 6.5.2 2.2-.1 4.3-.7 6.5-1 1.1001-.1 2.3-.2 3.4-.1l.4.1c.3001.1.3001.1.5.1l.8001.2.7999.2.8.4c2.2 1 3.8 2.5 5.2 4.2 2.8 3.3 4.6 6.9 6.8 10 1.1 1.5 2.3 3 3.6 4.1s2.8001 2 4.3001 2.4c3.0999.9 6-.1 8.5-1.1s4.5999-2.2 6.3999-2.9 3.4-1.2 4.4-1.3c.5-.1.9-.1 1.2001-.1h.3999v.7h-.3999c-.3001 0-.7001 0-1.2001.2-1 .2-2.5.6-4.2 1.4-1.8.8-3.8 1.9-6.4 3-1.3.5-2.6999 1.1-4.1999 1.4-.4001.1-.8001.1-1.2001.2-.4 0-.7999 0-1.2999.1-.4001 0-.8001-.1-1.2001-.1-.5 0-.9-.2-1.2999-.3-1.7001-.4-3.3001-1.4-4.8001-2.5-1.4-1.2-2.6999-2.7-3.8-4.3-2.3-3.1-4.2-6.7-6.8999-9.8-.6001-.8-1.4001-1.5-2.1001-2.2-.8-.6-1.6-1.2-2.5-1.6l-.7-.3-.8-.2-.8-.2-.3-.1h-.4c-1-.1-2.1-.1-3.1.1-2.1.3-4.2999.9-6.6 1-2.3.2-4.6.1-6.8-.2-4.5-.4-8.8999-1.3-13.1-.8l-1.6.3c-.5.1-1 .3-1.5.4-.5.2-.9.4-1.4.5-.5.2-.9.5-1.4.8-1.7 1-3.2 2.6-4.3999 4.2-2.5 3.2-4.4001 7-7.5001 9.6-1.5 1.3-3.2 2.3-5 2.9-.9.3-1.9.4-2.8.3-.5 0-1-.1-1.4-.2-.5-.1-.9-.2-1.3-.4-1.7-.7-3-1.7-4.1-2.7-1.2-1-2.3-1.8-3.5-2.4-2.3-1.2-4.7-1.8-6.5-1.9-1.9-.2-3.4 0-4.4.2-.5.1-.9.2-1.1.2-.3.1-.4.1-.4.1l.2-.9z" fill="#67594c"/></svg>