<svg xmlns="http://www.w3.org/2000/svg" xmlns:xlink="http://www.w3.org/1999/xlink" width="255" height="255"><path d="M0 127C0 56.642 56.642 0 127 0s127 56.642 127 127-56.642 127-127 127S0 197.358 0 127z" fill="#efc848"/><path d="M217.2 95.5c-3.5-11.1-14.6-18.1-25.6-22.1-3.7999-1.4-7.9-2.6-11-5.1999s-5-6.4001-8.2999-8.8001c-4-2.9-9.8001-3.1999-14-.6-1.1001.7-2.1001 1.5-3.3001 2-3 1.2-6.4 0-9.1999-1.8-2.7001-1.7999-5.1001-4.1-8.1001-5.2999C134.3001 52.3 130.6 52.5 127 52.8c-3.5999-.3-7.4-.5-10.6999.9001-3 1.1999-5.4 3.5-8.1001 5.2999s-6.2 3-9.2 1.8c-1.1999-.5-2.1999-1.3-3.3-2-4.2-2.5999-10-2.4-14 .6-3.2999 2.4-5.2 6.2-8.2999 8.8001S66.2 72 62.4001 73.4c-11 4-22.1001 10.9-25.6001 22.1-1.3 4.2001-1.3999 8.6-1 12.9.9 9.7 4.5 19.2 10.3 27.1 2.5 3.4 5.4 6.6 8.1 9.9 9.8 11.9 17.3 25.7 27.8 36.9 8.6 9.2 20 16.7 32.2 18 4 .7 8.3 1 12.8 1s8.8001-.3999 12.8001-1C152 199 163.5 191.5 172 182.3c10.5-11.3 18-25.0999 27.8001-36.9 2.6999-3.3 5.6-6.4 8.1-9.9 5.7999-7.9 9.2999-17.4 10.2999-27.1.4-4.3.3-8.8-1-12.9z" fill="#766a5e"/><path d="M147 129.7c-4.9.6-9.7 1.7-14.6 1.9-7.3.2-14.5-1.7-21.8-2.4-11.3-1.1-22.5.8-33.4 3.3 1.5 2.3 3 4.7 4.2 7.3 2.2 4.7 3.4 9.8 5.1 14.7 1.4 4.1 3.2 8.2 5.2 12 1.5 2.7 3.1 5.4 5.4 7.4 5.8 5.2 12.3 7.1 20.4 7.7 2.6999.2 6.1999.4 9.5.4 3.3.1 6.6999-.1 9.5-.4 8.1-.7 14.6999-2.5 20.4-7.7 2.2999-2.1 3.9-4.7 5.4-7.4 2.1-3.9 3.8-7.9 5.2-12 1.6999-4.9 2.9-10 5.1-14.7 1.3-2.8 2.9-5.4 4.5999-8C167.5 129.2 157.1 128.4 147 129.7z" fill="#ceac90"/><path d="M188.6999 116.6C195.3 110.1 203.9 106 212.3 102.1c-1.7-6.4-8.4-10.5-15.1001-11.3S183.9 91.7 177.4 93.3s-13.3 3-19.9 1.5c-5.4-1.2-10.2-4.3-15.1-6.7-4.8-2.3-10.2001-4.1-15.4-2.8-5.1-1.2-10.6.5-15.4 2.8-5 2.4-9.7 5.5-15.1 6.7-6.5 1.5-13.4 0-19.9-1.5-6.5-1.6-13.2-3.3-19.8-2.5-6.7.8-13.4 4.9-15.1 11.3 8.4 4 17 8 23.6 14.5 3.8 3.7 6.8 8.2 9.8 12.6.7 1.1 1.5 2.2 2.2 3.3 11-2.4 22.1-4.3 33.3999-3.3 7.3001.7 14.5 2.6 21.8001 2.4 4.9-.1 9.6999-1.2 14.6-1.9 10-1.3 20.4-.5 30.2 2 .6-.9 1.2-1.7 1.7-2.6 2.9-4.4 5.9-8.8 9.6999-12.5z" fill="#3c2914"/><path d="M94.9001 65.2C95 65.1 95 65 95 64.9s-.0999-.3-.1999-.4C93.8 63.3 93 61.9 91.8 60.9c-2.3-1.8-5.8-1.3-8.1.4-1.9 1.4-3.1 3.6-4 5.8-.2.6.3 1.3 1 1.2.5-.1.9 0 1.3.1.5.1.9001.4 1.4001.7C84.5 69.8 85.8 70.3 87.1 70.6c1.3001.2 2.7.1 3.8001-.5C92.1 69.4 93 68.2 93.8 67c.3-.7.7-1.2 1.1001-1.8z" fill="#050508"/><path d="M91.9 61.6c.8.5 1.6 1.2 1.7 2.1.1.8-.3 1.6-.8 2.3-.6.9-1.3 1.7-2 2.4-.4.4-.8.7-1.3.9s-1.1.2-1.7.1c-2.2-.2-4.2-1.1-5.8-2.6-.2-.2-.4-.4-.4-.7 0-.2.1-.4.1-.6.7-1.6 1.6-3.1 3-4.1s3.2-1.6 4.9-1.1c.8.4 1.6.8 2.3 1.3z" fill="#341511"/><path d="M84.7 61.5c1.3999-1 3.2-1.6 4.8999-1.1.8001.2 1.6001.7 2.3001 1.2.1999.1.4.2.5.4.6 1 .9 2.3.6999 3.6-.0999.1-.1999.3-.1999.4-.6.9-1.3001 1.7-2 2.4-.4.4-.8001.7-1.3001.9s-1.0999.2-1.6999.1c-1.6-.2-3.2-.7-4.6-1.6-.7001-1-1.1-2.2-.9-3.5.5-1 1.3-2 2.3-2.8z" fill="#85361b"/><path d="M85.8 65.2c0-1.2188.9812-2.2 2.2-2.2s2.2.9812 2.2 2.2-.9812 2.2-2.2 2.2-2.2-.9812-2.2-2.2z" fill="#010101"/><path d="M159.1 65.2c-.1-.1-.1-.2-.1-.3s.1-.3.2-.4c1-1.2 1.8-2.6 3-3.6 2.3-1.8 5.8-1.3 8.1.4 1.9 1.4 3.1 3.6 4 5.8.2.6-.3 1.3-1 1.2-.5-.1-.9 0-1.3.1-.5.1-.9.4-1.4.7-1.1.7-2.4 1.2-3.7 1.5-1.3.2-2.7.1-3.8-.5-1.2-.7-2.1-1.9-2.9-3.1-.3-.7-.7-1.2-1.1-1.8z" fill="#050508"/><path d="M162.1 61.6c-.8.5-1.6 1.2-1.7 2.1-.1.8.2999 1.6.7999 2.3.6001.9 1.3001 1.7 2 2.4.4001.4.8001.7 1.3001.9s1.1.2 1.6999.1C168.4 69.2 170.4 68.3 172 66.8c.1999-.2.4-.4.4-.7 0-.2-.1-.4-.1-.6-.7-1.6-1.6001-3.1-3-4.1s-3.2-1.6-4.9-1.1c-.8.4-1.6.8-2.3 1.3z" fill="#341511"/><path d="M169.3001 61.5c-1.4001-1-3.2001-1.6-4.9001-1.1-.8.2-1.5999.7-2.3 1.2-.2.1-.4.2-.5.4-.6 1-.9 2.3-.7 3.6.1.1.2.3.2.4.6.9 1.3 1.7 2 2.4.4.4.8.7 1.3.9s1.1.2 1.7.1c1.6-.2 3.2001-.7 4.6-1.6.7-1 1.1001-2.2.9-3.5-.5-1-1.2999-2-2.2999-2.8z" fill="#85361b"/><path d="M163.8 65.2c0-1.2188.9812-2.2 2.2-2.2s2.1999.9812 2.1999 2.2-.9812 2.2-2.1999 2.2-2.2-.9812-2.2-2.2z" fill="#010101"/><path d="M122.9 84.8l.7999 8.4.4001 2.8c.3 1.1.7 2.2 1.4 3.1.1999.4.5.7.9.8.7.2 1.2-.5 1.6-1.2 1.3-2.3 1.6999-5.2 2-8l.6999-6c-1.1999 0-2.5.1-3.6999.4-1.4-.2-2.7-.3-4.1-.3zm-53 6.8c.1 3.1.5 6.2.8 9.2l.4 2.8c.3 1.1.7 2.2 1.4 3.1.2.4.5.7.9.8.7.2 1.2-.5 1.6-1.2 1.3-2.3 1.7-5.2 2-8l.6-5c-.3-.1-.6-.1-.9-.2l-6.8-1.5zm-11-1.1l.5 4.3.4 2.8c.3 1.1.7 2.2 1.4 3.1.2.4.5.7.9.8.7.2 1.2-.5 1.6-1.2 1.3-2.3 1.7-5.2 2-8 .1-.5.1-1 .2-1.5l-7-.3zm25.5 12l.4 2.8c.3 1.1.7 2.2 1.4 3.1.2.4.5.7.9.8.7.2 1.2-.5 1.6-1.2 1.3-2.3 1.7-5.2 2-8l.5-4.8c-2.5.1-5.1-.2-7.6-.6l.8 7.9zm20.4-8.7l.2999-2.4c-2.1999 1.1-4.5 2.1-6.7999 2.8l.2 2 .4 2.8c.2999 1.1.6999 2.2 1.4 3.1.2.4.5.7.8999.8.7001.2 1.2001-.5 1.6001-1.2 1.3999-2.2 1.7-5.2 2-7.9zm13-8.2c-2.1001.6-4.2 1.4-6.2 2.4l-1.2.6.5 4.6.4 2.8c.3 1.1.7 2.2 1.3999 3.1.2001.4.5.7.9001.8.7.2 1.2-.5 1.5999-1.2 1.3001-2.3 1.7001-5.2 2-8l.6001-5.1zm58.6 7.8l.6 5c.3 2.8.6999 5.7 2 8 .4.7 1 1.3 1.6 1.2.4-.1.7-.5.9-.8.6-.9 1.1-2 1.4-3.1.2-.9.2999-1.9.4-2.8l.8-9.2-6.8 1.6c-.2-.1-.6001 0-.9.1zm11.7-2.5c.1.5.1 1 .2001 1.5.2999 2.8.6999 5.7 2 8 .3999.7 1 1.3 1.5999 1.2.4001-.1.7-.5.9001-.8.5999-.9 1.0999-2 1.3999-3.1.2-.9.3-1.9.4-2.8l.5-4.3c-2.4-.2-4.7 0-7 .3zm-24.9 9.2c.3 2.8.7 5.7 2 8 .4.7 1 1.3 1.6001 1.2.3999-.1.6999-.5.8999-.8.6001-.9 1.1001-2 1.4-3.1.2001-.9.3-1.9.4-2.8l.7-7.8c-2.5.4-5.1.7-7.6.6.3 1.5.4 3.1.6 4.7zm-14.0001-6.3c.3001 2.8.7001 5.7 2 8 .4001.7 1 1.3 1.6001 1.2.3999-.1.7-.5.8999-.8.6001-.9 1.1001-2 1.4001-3.1.2-.9.3-1.9.4-2.8l.1999-2c-2.3999-.7-4.5999-1.7-6.7999-2.8l.2999 2.3zM136.2 85.6l.6001 5.1c.2999 2.8.6999 5.7 2 8 .3999.7 1 1.3 1.6 1.2.4-.1.6999-.5.9-.8.6-.9 1.1-2 1.3999-3.1.2001-.9.3-1.9.4-2.8l.5-4.6-1.1999-.6c-2-.9-4.1-1.8-6.2001-2.4zm-27.4 81.8c-.3-1.1-.7001-2.2-1.4-3.1-.2001-.4-.5-.7-.9-.8-.7-.2-1.2.5-1.6 1.2-1.3001 2.3-1.7001 5.2-2 8l-.6 5c2.3999 1.3 5 2.2 7.7 2.9-.1-3.4-.5-6.9-.8001-10.3 0-1.1-.1-2-.3999-2.9zm42.2 0c-.3-1.1-.6999-2.2-1.4-3.1-.1999-.4-.5-.7-.9-.8-.7-.2-1.2.5-1.6 1.2-1.2999 2.3-1.6999 5.2-2 8l-.9 7.8c2.8-.7 5.4-1.7 7.9-3.1l-.6999-7.1-.4001-2.9zm-28.4 4c-.2999-1.1-.7-2.2-1.2999-3.1-.2001-.4-.5-.7-.8001-.8-.6-.2-1.1999.5-1.5 1.2-1.1999 2.3-1.6 5.2-1.9 8l-.5 4.9c.3 0 .6.1.9.1l6.2.3c-.1-2.6-.3999-5.2-.7-7.7l-.4-2.9zm14.2001 0c-.3001-1.1-.7001-2.2-1.3001-3.1-.1999-.4-.5-.7-.8-.8-.6-.2-1.2.5-1.5 1.2-1.2 2.3-1.6 5.2-1.8999 8L130.7 182l5.7001-.3c.5 0 .9-.1 1.4-.1l-.7001-7.3c0-1.1-.1-2-.2999-2.9z" fill="#fff"/><path d="M63 78.8s.1 0 .4-.1.6-.2 1.2-.3c1.1-.2 2.6-.4 4.6-.3s4.4.6 6.9 1.9c1.3.6 2.5 1.5 3.7 2.4s2.5 1.9 3.9 2.5c.4.1.7.3 1.1.3.4.1.8.1 1.2.2.8 0 1.6-.1 2.4-.3 1.6-.5 3.2-1.5 4.5-2.7 2.8-2.4 4.6-6.1 7.2-9.5 1.3-1.7 2.8-3.3 4.8-4.6.5-.3.9001-.5 1.4001-.8.5-.2 1.0999-.5 1.5999-.6s1.1-.3 1.7-.4l1.7001-.3c4.5-.5 9 .3 13.3999.7 2.2.2 4.4.3 6.5.2 2.2-.1 4.3-.7 6.5-1 1.1001-.1 2.3-.2 3.4-.1l.4.1c.3001.1.3001.1.5.1l.8001.2.7999.2.8.4c2.2 1 3.8 2.5 5.2 4.2 2.8 3.3 4.6 6.9 6.8 10 1.1 1.5 2.3 3 3.6 4.1s2.8001 2 4.3001 2.4c3.0999.9 6-.1 8.5-1.1s4.5999-2.2 6.3999-2.9 3.4-1.2 4.4-1.3c.5-.1.9-.1 1.2001-.1h.3999v.7h-.3999c-.3001 0-.7001 0-1.2001.2-1 .2-2.5.6-4.2 1.4-1.8.8-3.8 1.9-6.4 3-1.3.5-2.6999 1.1-4.1999 1.4-.4001.1-.8001.1-1.2001.2-.4 0-.7999 0-1.2999.1-.4001 0-.8001-.1-1.2001-.1-.5 0-.9-.2-1.2999-.3C162.1 88.5 160.5 87.5 159 86.4c-1.4-1.2-2.6999-2.7-3.8-4.3-2.3-3.1-4.2-6.7-6.8999-9.8-.6001-.8-1.4001-1.5-2.1001-2.2-.8-.6-1.6-1.2-2.5-1.6l-.7-.3-.8-.2-.8-.2-.3-.1h-.4c-1-.1-2.1-.1-3.1.1-2.1.3-4.2999.9-6.6 1-2.3.2-4.6.1-6.8-.2-4.5-.4-8.8999-1.3-13.1-.8l-1.6.3c-.5.1-1 .3-1.5.4-.5.2-.9.4-1.4.5-.5.2-.9.5-1.4.8-1.7 1-3.2 2.6-4.3999 4.2-2.5 3.2-4.4001 7-7.5001 9.6-1.5 1.3-3.2 2.3-5 2.9-.9.3-1.9.4-2.8.3-.5 0-1-.1-1.4-.2-.5-.1-.9-.2-1.3-.4-1.7-.7-3-1.7-4.1-2.7-1.2-1-2.3-1.8-3.5-2.4-2.3-1.2-4.7-1.8-6.5-1.9-1.9-.2-3.4 0-4.4.2-.5.1-.9.2-1.1.2-.3.1-.4.1-.4.1l.2-.9z" fill="#67594c"/><path d="M70.244 43.5l-.512-21.856q-2.272.864-3.52 2.672-1.248 1.808-1.248 4.432 0 1.184.224 1.648.224.464.224.528-1.728 0-2.576-.72-.848-.72-.848-2.384 0-2.048 1.68-3.984 1.68-1.936 4.304-3.136 2.624-1.2 5.248-1.2.448 0 1.28.064l.288 19.68 6.72-19.584h4.064l.288 19.584 6.72-19.584h2.24L85.924 43.5h-4.608l-.384-16.288-6.08 16.288h-4.608zm27.68-17.728q-1.056 0-1.792-.736-.736-.736-.736-1.792 0-1.056.736-1.808.736-.752 1.792-.752 1.056 0 1.808.752.752.752.752 1.808 0 1.056-.752 1.792-.752.736-1.808.736zm-2.176 17.92q-1.536 0-2.48-.96-.944-.96-.944-2.88 0-.8.256-2.08L94.756 27.5h4.608L97.06 38.38q-.128.48-.128 1.024 0 .64.304.912.304.272 1.008.272.928 0 1.728-.784.8-.784 1.152-2.032h1.344q-1.184 3.456-3.04 4.688-1.856 1.232-3.68 1.232z"/><path d="M104.292 43.692q-1.536 0-2.48-.96-.944-.96-.944-2.88 0-.8.256-2.08l3.424-16.032 4.736-.64-3.68 17.28q-.128.48-.128 1.024 0 .64.304.912.304.272 1.008.272.928 0 1.728-.784.8-.784 1.152-2.032h1.344q-1.184 3.456-3.04 4.688-1.856 1.232-3.68 1.232z"/><path d="M113.508 43.692q-1.824 0-3.04-1.248-1.216-1.248-1.216-3.904 0-2.368.944-4.976.944-2.608 2.816-4.416 1.872-1.808 4.464-1.808 1.312 0 1.952.448.64.448.64 1.184v.128l1.568-7.36 4.736-.64-3.68 17.28q-.128.48-.128 1.024 0 .64.304.912.304.272 1.008.272.896 0 1.552-.768.656-.768 1.04-2.048h1.344Q125.86 43.5 121.38 43.5q-1.312 0-2.128-.704-.816-.704-1.008-2.048-.832 1.28-2 2.112-1.168.832-2.736.832zm2.08-3.104q.768 0 1.552-.704.784-.704 1.072-1.952v-.16l1.568-7.328q-.288-1.12-1.312-1.12-1.28 0-2.304 1.488-1.024 1.488-1.6 3.584-.576 2.096-.576 3.696 0 1.6.464 2.048.464.448 1.136.448zm25.44 3.424q-3.616 0-5.312-1.824-1.696-1.824-1.696-6.048 0-3.36 1.136-7.232 1.136-3.872 3.648-6.64 2.512-2.768 6.384-2.768 2.4 0 3.872 1.056 1.472 1.056 1.472 3.232 0 1.376-.544 2.16-.544.784-1.696.784-1.152 0-1.824-.832.576-.288 1.024-1.152.448-.864.448-1.792 0-.864-.464-1.408-.464-.544-1.488-.544-1.696 0-3.232 2.32-1.536 2.32-2.48 5.84-.944 3.52-.944 6.784 0 2.432.832 3.712.832 1.28 3.008 1.28 1.888 0 3.488-.832 1.6-.832 2.752-2.368l.736.32q-.8 2.016-2.368 3.36-1.568 1.344-3.36 1.968-1.792.624-3.392.624z"/><use xlink:href="#B"/><use xlink:href="#C"/><path d="M185.7 43.692q-2.368 0-3.68-1.232-1.312-1.232-1.312-3.856 0-2.208.864-4.864.864-2.656 2.816-4.592 1.952-1.936 4.96-1.936 3.52 0 3.52 3.072 0 1.792-1.024 3.296-1.024 1.504-2.72 2.416-1.696.912-3.616 1.04-.064.96-.064 1.28 0 1.568.544 2.128.544.56 1.76.56 1.728 0 2.96-.8 1.232-.8 2.704-2.432h1.088q-3.552 5.92-8.8 5.92zm.064-8.192q1.184-.064 2.256-.832 1.072-.768 1.728-1.952.656-1.184.656-2.496 0-1.312-.8-1.312-1.152 0-2.256 2.016-1.104 2.016-1.584 4.576zM77 231.5l8.128-21.984q-2.432.8-3.76 2.64-1.328 1.84-1.328 4.56 0 1.216.224 1.664.224.448.224.544-3.424 0-3.424-2.912 0-1.984 1.52-3.984 1.52-2 3.904-3.264 2.384-1.264 4.752-1.264 1.184 0 2.432.448l-.736 16.864 7.04-16.864h4.608l-3.36 23.552h-4.608l2.048-14.368-6.016 14.368h-4.384l.64-14.432L79.56 231.5H77z"/><use xlink:href="#B" x="-49.276" y="188"/><use xlink:href="#C" x="-49.276" y="188"/><use xlink:href="#D"/><use xlink:href="#D" x="14.048"/><path d="M171.496 231.692q-1.952 0-2.864-1.04-.912-1.04-.912-2.576 0-.672.16-1.52.16-.848.336-1.648.176-.8.24-1.024.256-1.12.48-2.208.224-1.088.224-1.76 0-1.632-1.152-1.632-.832 0-1.472.816-.64.816-1.024 2.128l-2.176 10.272h-4.608l3.392-16h4.608l-.352 1.664q1.6-1.792 3.744-1.792 1.632 0 2.592.896.96.896.96 2.72 0 .928-.224 2.064-.224 1.136-.64 2.768-.256.992-.464 1.936-.208.944-.208 1.488 0 .64.288.992.288.352.992.352.96 0 1.536-.688.576-.688 1.152-2.128h1.344q-1.184 3.52-2.736 4.72-1.552 1.2-3.216 1.2z"/><defs ><path id="B" d="M153.156 43.692q-1.824 0-3.04-1.248-1.216-1.248-1.216-3.904 0-2.368.944-4.976.944-2.608 2.816-4.416 1.872-1.808 4.464-1.808 1.312 0 1.952.448.64.448.64 1.184v.224l.352-1.696h4.608l-2.304 10.88q-.128.48-.128 1.024 0 1.376 1.312 1.376.896 0 1.552-.832.656-.832 1.04-2.176h1.344q-1.184 3.456-2.928 4.688-1.744 1.232-3.504 1.232-1.344 0-2.16-.752-.816-.752-.976-2.192-.928 1.312-2.064 2.128-1.136.816-2.704.816zm2.08-3.104q.8 0 1.584-.752.784-.752 1.072-2.064l1.536-7.232q0-.416-.32-.816-.32-.4-.992-.4-1.28 0-2.304 1.488-1.024 1.488-1.6 3.584-.576 2.096-.576 3.696 0 1.6.464 2.048.464.448 1.136.448z"/><path id="C" d="M163.236 51.5l5.344-25.184h4.608l-.512 2.4q1.6-1.376 3.744-1.376 1.792 0 2.848 1.184 1.056 1.184 1.056 3.872 0 2.528-.736 5.104-.736 2.576-2.496 4.384-1.76 1.808-4.64 1.808-2.048 0-2.72-1.152l-1.664 7.808-4.832 1.152zm8.224-10.592q1.536 0 2.544-1.44 1.008-1.44 1.472-3.44.464-2 .464-3.728 0-2.656-1.6-2.656-.576 0-1.168.416-.592.416-1.04 1.152l-1.888 8.96q.256.736 1.216.736z"/><path id="D" d="M136.52 231.628q-2.368 0-3.744-1.216-1.376-1.216-1.376-3.84 0-2.176.896-4.832.896-2.656 2.88-4.592 1.984-1.936 4.992-1.936 4.096 0 4.096 5.12v.032q.096.032.352.032 1.056 0 2.432-.56 1.376-.56 2.496-1.36l.288.864q-.928.992-2.416 1.68-1.488.688-3.248.976-.256 2.912-1.312 5.088-1.056 2.176-2.72 3.36-1.664 1.184-3.616 1.184zm1.28-2.88q.768 0 1.536-.88.768-.88 1.344-2.4.576-1.52.832-3.376-.864-.192-.864-1.344 0-1.312.992-1.728-.064-1.056-.32-1.456-.256-.4-.896-.4-1.056 0-2.048 1.536-.992 1.536-1.6 3.68-.608 2.144-.608 3.776 0 1.536.352 2.064.352.528 1.28.528z"/></defs></svg>