<svg id="visual" viewBox="0 0 960 80" width="960" height="80" xmlns="http://www.w3.org/2000/svg" xmlns:xlink="http://www.w3.org/1999/xlink" version="1.1"><rect x="0" y="0" width="960" height="80" fill="#FFFFFF"></rect><path d="M0 29L10.7 27.8C21.3 26.7 42.7 24.3 64 21.8C85.3 19.3 106.7 16.7 128 18C149.3 19.3 170.7 24.7 192 28.5C213.3 32.3 234.7 34.7 256 32.2C277.3 29.7 298.7 22.3 320 20.8C341.3 19.3 362.7 23.7 384 25.8C405.3 28 426.7 28 448 27.7C469.3 27.3 490.7 26.7 512 25.3C533.3 24 554.7 22 576 21C597.3 20 618.7 20 640 21.2C661.3 22.3 682.7 24.7 704 25.7C725.3 26.7 746.7 26.3 768 24.8C789.3 23.3 810.7 20.7 832 19.5C853.3 18.3 874.7 18.7 896 21C917.3 23.3 938.7 27.7 949.3 29.8L960 32L960 81L949.3 81C938.7 81 917.3 81 896 81C874.7 81 853.3 81 832 81C810.7 81 789.3 81 768 81C746.7 81 725.3 81 704 81C682.7 81 661.3 81 640 81C618.7 81 597.3 81 576 81C554.7 81 533.3 81 512 81C490.7 81 469.3 81 448 81C426.7 81 405.3 81 384 81C362.7 81 341.3 81 320 81C298.7 81 277.3 81 256 81C234.7 81 213.3 81 192 81C170.7 81 149.3 81 128 81C106.7 81 85.3 81 64 81C42.7 81 21.3 81 10.7 81L0 81Z" fill="#f5de9b"></path><path d="M0 40L10.7 39.3C21.3 38.7 42.7 37.3 64 37.3C85.3 37.3 106.7 38.7 128 41.8C149.3 45 170.7 50 192 52.2C213.3 54.3 234.7 53.7 256 52.3C277.3 51 298.7 49 320 49.2C341.3 49.3 362.7 51.7 384 50.5C405.3 49.3 426.7 44.7 448 41C469.3 37.3 490.7 34.7 512 36.5C533.3 38.3 554.7 44.7 576 44.5C597.3 44.3 618.7 37.7 640 37C661.3 36.3 682.7 41.7 704 42.7C725.3 43.7 746.7 40.3 768 41.7C789.3 43 810.7 49 832 51C853.3 53 874.7 51 896 49.7C917.3 48.3 938.7 47.7 949.3 47.3L960 47L960 81L949.3 81C938.7 81 917.3 81 896 81C874.7 81 853.3 81 832 81C810.7 81 789.3 81 768 81C746.7 81 725.3 81 704 81C682.7 81 661.3 81 640 81C618.7 81 597.3 81 576 81C554.7 81 533.3 81 512 81C490.7 81 469.3 81 448 81C426.7 81 405.3 81 384 81C362.7 81 341.3 81 320 81C298.7 81 277.3 81 256 81C234.7 81 213.3 81 192 81C170.7 81 149.3 81 128 81C106.7 81 85.3 81 64 81C42.7 81 21.3 81 10.7 81L0 81Z" fill="#887a50"></path><path d="M0 56L10.7 56.7C21.3 57.3 42.7 58.7 64 60.3C85.3 62 106.7 64 128 64.7C149.3 65.3 170.7 64.7 192 64.7C213.3 64.7 234.7 65.3 256 65C277.3 64.7 298.7 63.3 320 60.8C341.3 58.3 362.7 54.7 384 54.5C405.3 54.3 426.7 57.7 448 58.2C469.3 58.7 490.7 56.3 512 54.7C533.3 53 554.7 52 576 52.3C597.3 52.7 618.7 54.3 640 57C661.3 59.7 682.7 63.3 704 62.8C725.3 62.3 746.7 57.7 768 56.3C789.3 55 810.7 57 832 58.7C853.3 60.3 874.7 61.7 896 62.5C917.3 63.3 938.7 63.7 949.3 63.8L960 64L960 81L949.3 81C938.7 81 917.3 81 896 81C874.7 81 853.3 81 832 81C810.7 81 789.3 81 768 81C746.7 81 725.3 81 704 81C682.7 81 661.3 81 640 81C618.7 81 597.3 81 576 81C554.7 81 533.3 81 512 81C490.7 81 469.3 81 448 81C426.7 81 405.3 81 384 81C362.7 81 341.3 81 320 81C298.7 81 277.3 81 256 81C234.7 81 213.3 81 192 81C170.7 81 149.3 81 128 81C106.7 81 85.3 81 64 81C42.7 81 21.3 81 10.7 81L0 81Z" fill="#29230f"></path></svg>