<svg id="visual" viewBox="0 0 960 80" width="960" height="80" xmlns="http://www.w3.org/2000/svg" xmlns:xlink="http://www.w3.org/1999/xlink" version="1.1"><rect x="0" y="0" width="960" height="80" fill="#FFFFFF"></rect><path d="M0 41L8.5 38.3C17 35.7 34 30.3 50.8 25.8C67.7 21.3 84.3 17.7 101.2 18.7C118 19.7 135 25.3 151.8 28.2C168.7 31 185.3 31 202.2 31C219 31 236 31 252.8 28.7C269.7 26.3 286.3 21.7 303.2 21.8C320 22 337 27 353.8 27.5C370.7 28 387.3 24 404.2 21.2C421 18.3 438 16.7 454.8 18.5C471.7 20.3 488.3 25.7 505.2 28.3C522 31 539 31 555.8 28.3C572.7 25.7 589.3 20.3 606.2 18.5C623 16.7 640 18.3 656.8 18.3C673.7 18.3 690.3 16.7 707.2 18.8C724 21 741 27 757.8 30.8C774.7 34.7 791.3 36.3 808.2 34.8C825 33.3 842 28.7 858.8 26C875.7 23.3 892.3 22.7 909.2 23C926 23.3 943 24.7 951.5 25.3L960 26L960 81L951.5 81C943 81 926 81 909.2 81C892.3 81 875.7 81 858.8 81C842 81 825 81 808.2 81C791.3 81 774.7 81 757.8 81C741 81 724 81 707.2 81C690.3 81 673.7 81 656.8 81C640 81 623 81 606.2 81C589.3 81 572.7 81 555.8 81C539 81 522 81 505.2 81C488.3 81 471.7 81 454.8 81C438 81 421 81 404.2 81C387.3 81 370.7 81 353.8 81C337 81 320 81 303.2 81C286.3 81 269.7 81 252.8 81C236 81 219 81 202.2 81C185.3 81 168.7 81 151.8 81C135 81 118 81 101.2 81C84.3 81 67.7 81 50.8 81C34 81 17 81 8.5 81L0 81Z" fill="#ebbd38"></path><path d="M0 31L8.5 31.2C17 31.3 34 31.7 50.8 35.3C67.7 39 84.3 46 101.2 48.5C118 51 135 49 151.8 45.7C168.7 42.3 185.3 37.7 202.2 37.3C219 37 236 41 252.8 42.5C269.7 44 286.3 43 303.2 40.8C320 38.7 337 35.3 353.8 36.3C370.7 37.3 387.3 42.7 404.2 43.2C421 43.7 438 39.3 454.8 39.7C471.7 40 488.3 45 505.2 46C522 47 539 44 555.8 41C572.7 38 589.3 35 606.2 35.5C623 36 640 40 656.8 40.8C673.7 41.7 690.3 39.3 707.2 41.2C724 43 741 49 757.8 49.3C774.7 49.7 791.3 44.3 808.2 40.5C825 36.7 842 34.3 858.8 36.3C875.7 38.3 892.3 44.7 909.2 45.2C926 45.7 943 40.3 951.5 37.7L960 35L960 81L951.5 81C943 81 926 81 909.2 81C892.3 81 875.7 81 858.8 81C842 81 825 81 808.2 81C791.3 81 774.7 81 757.8 81C741 81 724 81 707.2 81C690.3 81 673.7 81 656.8 81C640 81 623 81 606.2 81C589.3 81 572.7 81 555.8 81C539 81 522 81 505.2 81C488.3 81 471.7 81 454.8 81C438 81 421 81 404.2 81C387.3 81 370.7 81 353.8 81C337 81 320 81 303.2 81C286.3 81 269.7 81 252.8 81C236 81 219 81 202.2 81C185.3 81 168.7 81 151.8 81C135 81 118 81 101.2 81C84.3 81 67.7 81 50.8 81C34 81 17 81 8.5 81L0 81Z" fill="#f0ce6c"></path><path d="M0 52L8.5 53.3C17 54.7 34 57.3 50.8 59.8C67.7 62.3 84.3 64.7 101.2 63.5C118 62.3 135 57.7 151.8 57.8C168.7 58 185.3 63 202.2 63.7C219 64.3 236 60.7 252.8 60.8C269.7 61 286.3 65 303.2 66C320 67 337 65 353.8 64.3C370.7 63.7 387.3 64.3 404.2 62.2C421 60 438 55 454.8 54.3C471.7 53.7 488.3 57.3 505.2 57.2C522 57 539 53 555.8 51.3C572.7 49.7 589.3 50.3 606.2 52C623 53.7 640 56.3 656.8 58.2C673.7 60 690.3 61 707.2 61C724 61 741 60 757.8 59.5C774.7 59 791.3 59 808.2 59.8C825 60.7 842 62.3 858.8 62.8C875.7 63.3 892.3 62.7 909.2 61.2C926 59.7 943 57.3 951.5 56.2L960 55L960 81L951.5 81C943 81 926 81 909.2 81C892.3 81 875.7 81 858.8 81C842 81 825 81 808.2 81C791.3 81 774.7 81 757.8 81C741 81 724 81 707.2 81C690.3 81 673.7 81 656.8 81C640 81 623 81 606.2 81C589.3 81 572.7 81 555.8 81C539 81 522 81 505.2 81C488.3 81 471.7 81 454.8 81C438 81 421 81 404.2 81C387.3 81 370.7 81 353.8 81C337 81 320 81 303.2 81C286.3 81 269.7 81 252.8 81C236 81 219 81 202.2 81C185.3 81 168.7 81 151.8 81C135 81 118 81 101.2 81C84.3 81 67.7 81 50.8 81C34 81 17 81 8.5 81L0 81Z" fill="#f5de9b"></path></svg>