<svg id="visual" viewBox="0 0 960 80" width="960" height="80" xmlns="http://www.w3.org/2000/svg" xmlns:xlink="http://www.w3.org/1999/xlink" version="1.1"><rect x="0" y="0" width="960" height="80" fill="#f5de9b"></rect><path d="M0 36L9.3 32.8C18.7 29.7 37.3 23.3 56.2 22C75 20.7 94 24.3 112.8 24.2C131.7 24 150.3 20 169.2 19.7C188 19.3 207 22.7 225.8 22.5C244.7 22.3 263.3 18.7 282.2 19.5C301 20.3 320 25.7 338.8 25.5C357.7 25.3 376.3 19.7 395.2 18.8C414 18 433 22 451.8 26.2C470.7 30.3 489.3 34.7 508.2 33.2C527 31.7 546 24.3 564.8 22.5C583.7 20.7 602.3 24.3 621.2 23.8C640 23.3 659 18.7 677.8 17.5C696.7 16.3 715.3 18.7 734.2 18.7C753 18.7 772 16.3 790.8 16.5C809.7 16.7 828.3 19.3 847.2 19.8C866 20.3 885 18.7 903.8 17.7C922.7 16.7 941.3 16.3 950.7 16.2L960 16L960 81L950.7 81C941.3 81 922.7 81 903.8 81C885 81 866 81 847.2 81C828.3 81 809.7 81 790.8 81C772 81 753 81 734.2 81C715.3 81 696.7 81 677.8 81C659 81 640 81 621.2 81C602.3 81 583.7 81 564.8 81C546 81 527 81 508.2 81C489.3 81 470.7 81 451.8 81C433 81 414 81 395.2 81C376.3 81 357.7 81 338.8 81C320 81 301 81 282.2 81C263.3 81 244.7 81 225.8 81C207 81 188 81 169.2 81C150.3 81 131.7 81 112.8 81C94 81 75 81 56.2 81C37.3 81 18.7 81 9.3 81L0 81Z" fill="#ebbd38"></path><path d="M0 50L9.3 47.7C18.7 45.3 37.3 40.7 56.2 40.3C75 40 94 44 112.8 44.7C131.7 45.3 150.3 42.7 169.2 40.5C188 38.3 207 36.7 225.8 37.3C244.7 38 263.3 41 282.2 42C301 43 320 42 338.8 42.8C357.7 43.7 376.3 46.3 395.2 46.7C414 47 433 45 451.8 42.8C470.7 40.7 489.3 38.3 508.2 38.3C527 38.3 546 40.7 564.8 41.3C583.7 42 602.3 41 621.2 40.8C640 40.7 659 41.3 677.8 40.2C696.7 39 715.3 36 734.2 38C753 40 772 47 790.8 50.5C809.7 54 828.3 54 847.2 54C866 54 885 54 903.8 53.5C922.7 53 941.3 52 950.7 51.5L960 51L960 81L950.7 81C941.3 81 922.7 81 903.8 81C885 81 866 81 847.2 81C828.3 81 809.7 81 790.8 81C772 81 753 81 734.2 81C715.3 81 696.7 81 677.8 81C659 81 640 81 621.2 81C602.3 81 583.7 81 564.8 81C546 81 527 81 508.2 81C489.3 81 470.7 81 451.8 81C433 81 414 81 395.2 81C376.3 81 357.7 81 338.8 81C320 81 301 81 282.2 81C263.3 81 244.7 81 225.8 81C207 81 188 81 169.2 81C150.3 81 131.7 81 112.8 81C94 81 75 81 56.2 81C37.3 81 18.7 81 9.3 81L0 81Z" fill="#fcdd9f"></path><path d="M0 60L9.3 59.2C18.7 58.3 37.3 56.7 56.2 55.5C75 54.3 94 53.7 112.8 54.5C131.7 55.3 150.3 57.7 169.2 57.2C188 56.7 207 53.3 225.8 51.8C244.7 50.3 263.3 50.7 282.2 51.3C301 52 320 53 338.8 53.5C357.7 54 376.3 54 395.2 53.7C414 53.3 433 52.7 451.8 52.3C470.7 52 489.3 52 508.2 51.7C527 51.3 546 50.7 564.8 53.2C583.7 55.7 602.3 61.3 621.2 64.3C640 67.3 659 67.7 677.8 67.3C696.7 67 715.3 66 734.2 66C753 66 772 67 790.8 66.2C809.7 65.3 828.3 62.7 847.2 59.7C866 56.7 885 53.3 903.8 53.8C922.7 54.3 941.3 58.7 950.7 60.8L960 63L960 81L950.7 81C941.3 81 922.7 81 903.8 81C885 81 866 81 847.2 81C828.3 81 809.7 81 790.8 81C772 81 753 81 734.2 81C715.3 81 696.7 81 677.8 81C659 81 640 81 621.2 81C602.3 81 583.7 81 564.8 81C546 81 527 81 508.2 81C489.3 81 470.7 81 451.8 81C433 81 414 81 395.2 81C376.3 81 357.7 81 338.8 81C320 81 301 81 282.2 81C263.3 81 244.7 81 225.8 81C207 81 188 81 169.2 81C150.3 81 131.7 81 112.8 81C94 81 75 81 56.2 81C37.3 81 18.7 81 9.3 81L0 81Z" fill="#ffffff"></path></svg>